# xmcd CD database file
#
# Track frame offsets:
#	150
#	19719
#	44721
#	60146
#	81618
#	104231
#	126859
#	150982
#	173390
#	191719
#	208402
#	222234
#	241229
#	262163
#	281093
#	299728
#
# Disc length: 4238 seconds
#
# Revision: 0
# Processed by: cddbd v1.5.2PL0 Copyright (c) Steve Scherf et al.
# Submitted via: CDex 1.51
#
DISCID=fc108c10
DTITLE=Randy McAllister - Flying High While Staying Low Down
DYEAR=2006
DGENRE=Blues
TTITLE0=The Girl Ain't Right
TTITLE1=Clear My Head
TTITLE2=Take Me Out of New Orleans
TTITLE3=That Chicken You're Fixn'
TTITLE4=Why
TTITLE5=The Sound of Leaving
TTITLE6=Close Your Eyes
TTITLE7=Baptist Church Van
TTITLE8=Stronger Vice - Better Hobby
TTITLE9=Drinkin' to Prevent a Killin'
TTITLE10=Wandering Shepherd
TTITLE11=Never Had a Lot of Faith
TTITLE12=Man Who Went for Cigarettes
TTITLE13=What Moves You
TTITLE14=The Chain
TTITLE15=Hard Headed
EXTD=YEAR: 2006
EXTT0=
EXTT1=
EXTT2=
EXTT3=
EXTT4=
EXTT5=
EXTT6=
EXTT7=
EXTT8=
EXTT9=
EXTT10=
EXTT11=
EXTT12=
EXTT13=
EXTT14=
EXTT15=
PLAYORDER=
